<svg viewBox="-10 -10 20 20" width="500px" height="500px"
    xmlns="http://www.w3.org/2000/svg">
    <circle r="10" fill="#1A1D2B" />
    <svg x="-4.5" y="-7.5" transform="scale(0.5)"
        xmlns="http://www.w3.org/2000/svg" width="10" height="15" viewBox="0 0 10 15" fill="none">
        <path transform-origin="center" transform="scale(0.5)" d="M4.95648 0.282808C6.32608 0.282808 7.42048 0.641208 8.23968 1.35801C9.07168 2.07481 9.48768 3.08601 9.48768 4.39161C9.48768 5.59481 9.09088 6.53561 8.29728 7.21401C7.51648 7.87961 6.47968 8.21881 5.18688 8.23161L5.09088 9.67161H2.21088L2.11488 6.10041H3.26688C4.25248 6.10041 5.00128 5.97881 5.51328 5.73561C6.03808 5.49241 6.30048 5.05081 6.30048 4.41081C6.30048 3.96281 6.17888 3.61081 5.93568 3.35481C5.69248 3.09881 5.35328 2.97081 4.91808 2.97081C4.45728 2.97081 4.09888 3.10521 3.84288 3.37401C3.58688 3.63001 3.45888 3.98201 3.45888 4.43001H0.367678C0.342078 3.64921 0.502078 2.94521 0.847678 2.31801C1.20608 1.69081 1.73088 1.19801 2.42208 0.839609C3.12608 0.468408 3.97088 0.282808 4.95648 0.282808ZM3.68928 14.6636C3.11328 14.6636 2.63968 14.4972 2.26848 14.1644C1.91008 13.8188 1.73088 13.3964 1.73088 12.8972C1.73088 12.3852 1.91008 11.9564 2.26848 11.6108C2.63968 11.2652 3.11328 11.0924 3.68928 11.0924C4.25248 11.0924 4.71328 11.2652 5.07168 11.6108C5.44288 11.9564 5.62848 12.3852 5.62848 12.8972C5.62848 13.3964 5.44288 13.8188 5.07168 14.1644C4.71328 14.4972 4.25248 14.6636 3.68928 14.6636Z" fill="white"/>
    </svg>
</svg>